<svg width="95" height="30" viewBox="0 0 95 30" fill="none" xmlns="http://www.w3.org/2000/svg">
<g clip-path="url(#clip0_78_2)">
<path d="M4.4547 22.8359C4.45522 21.3911 4.44093 20.0347 4.46072 18.6786C4.479 17.4257 5.19001 16.7694 6.54895 16.7615C9.05016 16.7469 11.5526 16.7974 14.0525 16.7417C15.8 16.7027 17.1181 15.922 17.8112 14.4148C18.4876 12.9439 18.0357 11.6533 16.9095 10.5143C16.5325 10.1331 16.0553 9.89779 15.5369 9.7251C14.142 9.26042 12.7177 9.47275 11.0157 9.46472C12.2016 10.5494 13.186 11.4548 14.1768 12.3543C14.7422 12.8676 15.212 13.435 15.0761 14.2104C14.957 14.8896 14.547 15.392 13.8039 15.6404C13.0041 15.9077 12.3429 15.6735 11.7868 15.1696C9.95976 13.5139 8.15206 11.8402 6.33901 10.1715C5.88589 9.7544 5.42217 9.34526 4.99625 8.90552C4.43355 8.32457 4.29446 7.65744 4.6635 6.93755C5.01701 6.24795 5.64439 5.95894 6.44911 5.95886C9.23903 5.95855 12.0299 5.91916 14.8186 5.97258C17.9035 6.03167 20.7986 8.30472 21.6508 11.2359C22.5174 14.2164 21.2369 17.3642 18.536 18.9962C17.124 19.8494 15.6025 20.2726 13.9129 20.2439C12.4382 20.2189 10.9627 20.2376 9.48758 20.2414C8.24349 20.2446 8.24295 20.2474 8.24191 21.4312C8.24071 22.7874 8.24815 24.1437 8.23778 25.4999C8.22898 26.65 7.45661 27.4405 6.35951 27.447C5.30176 27.4534 4.48813 26.6281 4.46127 25.4893C4.44112 24.6347 4.45567 23.7794 4.4547 22.8359Z" fill="#0C056D"/>
<path d="M49.6452 20.9501C49.6402 21.5001 49.6618 21.9733 49.623 22.4423C49.584 22.9134 49.2748 23.1935 48.7542 23.23C48.2302 23.2668 47.9042 23.0201 47.7659 22.5663C47.7144 22.3977 47.679 22.2184 47.6788 22.044C47.6763 19.304 47.6583 16.5639 47.6963 13.8243C47.7088 12.924 48.2617 12.4022 48.8523 12.7245C49.6754 13.1738 50.317 12.8699 51.073 12.7192C52.878 12.3592 54.6861 13.0794 55.5758 14.4206C56.526 15.8532 56.4253 17.6393 55.3188 18.9781C54.2521 20.2688 52.5077 20.7604 50.6745 20.2892C50.4035 20.2195 50.1299 20.1588 49.8918 20.1021C49.5601 20.3336 49.6783 20.6201 49.6452 20.9501ZM54.1596 16.1163C53.9398 15.1114 53.1862 14.593 52.1643 14.4641C51.3232 14.358 50.5893 14.6939 50.1062 15.3614C49.5848 16.0819 49.5356 16.8409 50.011 17.6075C50.4995 18.3951 51.5574 18.8144 52.4658 18.5819C53.6709 18.2733 54.1785 17.5864 54.1596 16.1163Z" fill="#0C056D"/>
<path d="M36.4783 13.6242C38.0197 15.0933 38.3345 16.8358 37.3912 18.4403C36.3347 20.2373 34.6499 20.7045 31.3406 20.0623C31.3406 20.7817 31.3437 21.4805 31.3397 22.1793C31.3364 22.7419 31.1251 23.1783 30.4398 23.2304C29.6888 23.2876 29.3611 22.8249 29.355 22.2484C29.3244 19.3885 29.3069 16.5275 29.3632 13.6681C29.381 12.76 30.1542 12.4158 30.9732 12.8839C31.3237 13.0843 31.5641 13.0976 31.9297 12.9622C33.5508 12.3616 35.0623 12.5483 36.4783 13.6242ZM32.8309 14.5935C31.696 15.1866 31.1795 16.0359 31.4012 16.9445C31.6815 18.0933 32.8766 18.8373 34.048 18.5922C35.4211 18.3049 36.1416 17.2555 35.8287 15.9984C35.5542 14.8956 34.333 14.2818 32.8309 14.5935Z" fill="#0C056D"/>
<path d="M63.0223 17.1887C63.4968 17.2272 63.4801 16.8476 63.6109 16.6175C64.2342 15.5206 64.832 14.4114 65.4327 13.3037C65.7339 12.7482 66.2002 12.4752 66.8389 12.7459C67.4554 13.0071 67.4988 13.5479 67.2427 14.0356C66.1979 16.0257 65.1434 18.0126 64.0251 19.9682C63.6083 20.697 62.764 20.6538 62.2475 19.9631C62.0869 19.7484 61.9514 19.5177 61.8253 19.3259C61.6012 19.2989 61.5356 19.4143 61.4756 19.5119C61.2105 19.9432 61.0312 20.4585 60.3432 20.4582C59.631 20.4578 59.3722 19.9592 59.1147 19.4823C58.1743 17.7405 57.2443 15.9938 56.3126 14.248C56.0273 13.7135 55.8173 13.1192 56.5266 12.78C57.289 12.4155 57.7752 12.8414 58.113 13.4787C58.7852 14.7472 59.483 16.0043 60.2009 17.3226C60.6325 17.0842 60.7491 16.7109 60.9275 16.3927C61.5003 15.3711 62.0587 14.3426 62.6158 13.3136C62.9153 12.7604 63.3812 12.4696 64.0164 12.7495C64.6585 13.0323 64.6898 13.5537 64.3935 14.1051C63.9959 14.8447 63.5937 15.5821 63.1989 16.3229C63.0606 16.5823 62.847 16.8298 63.0223 17.1887Z" fill="#0C056D"/>
<path d="M84.2587 20.2261C82.2685 19.3095 81.2292 17.6475 81.5624 16.0044C81.9494 14.0962 83.4238 12.8053 85.4524 12.6413C85.8919 12.6058 86.3585 12.627 86.7842 12.7258C87.4933 12.8905 88.0956 13.2074 88.8965 12.7321C89.4323 12.4141 90.0483 12.8503 90.0596 13.5093C90.0947 15.5422 90.1049 17.5766 90.0558 19.609C90.0369 20.3904 89.2435 20.7407 88.548 20.2744C88.1194 19.987 87.8173 20.0654 87.4165 20.2105C86.3976 20.5793 85.3646 20.6394 84.2587 20.2261ZM86.8328 18.4352C87.99 17.7102 88.3895 16.7171 87.9253 15.7198C87.5232 14.8562 86.3774 14.3026 85.4051 14.5022C84.0817 14.774 83.26 15.9457 83.5949 17.0836C83.961 18.3274 85.2217 18.8986 86.8328 18.4352Z" fill="#0C056D"/>
<path d="M67.9082 14.4107C69.0768 12.911 70.6131 12.3276 72.4821 12.729C74.1784 13.0932 75.2713 14.1062 75.6749 15.7021C76.0853 17.3253 75.3353 19.0052 73.7827 19.904C72.2476 20.7927 70.186 20.6864 68.8413 19.6494C67.3706 18.5151 66.832 16.7465 67.4908 15.1821C67.5946 14.9356 67.7414 14.7043 67.9082 14.4107ZM70.8902 18.5656C71.791 18.8777 72.544 18.5662 73.1475 17.9981C73.7646 17.4171 73.9667 16.6835 73.6507 15.8827C73.2895 14.9675 72.333 14.3726 71.3622 14.4528C70.3781 14.5341 69.5008 15.2176 69.3062 16.0546C69.0475 17.1669 69.5071 17.9535 70.8902 18.5656Z" fill="#0C056D"/>
<path d="M39.299 14.3017C40.7346 12.6748 42.6349 12.2084 44.5612 12.9649C46.2057 13.6107 47.3182 15.3744 47.0896 16.9735C46.8204 18.8577 45.2999 20.2833 43.226 20.4767C41.566 20.6315 40.1935 20.0548 39.2716 18.7583C38.2433 17.3123 38.2647 15.826 39.299 14.3017ZM43.6069 18.5218C43.7477 18.4532 43.8987 18.3977 44.0279 18.3138C45.0928 17.622 45.3929 16.5184 44.791 15.5309C44.2286 14.6081 42.9464 14.2115 41.8891 14.6331C40.8252 15.0574 40.2671 16.2723 40.6629 17.302C41.0517 18.3134 42.23 18.842 43.6069 18.5218Z" fill="#0C056D"/>
<path d="M76.3513 15.8912C76.3545 14.4231 76.357 13.0388 76.3639 11.6545C76.3652 11.3898 76.3691 11.1238 76.3978 10.8608C76.4622 10.2711 76.7094 9.81147 77.4653 9.8765C78.1462 9.93509 78.3414 10.3669 78.3383 10.938C78.3297 12.499 78.3342 14.06 78.3375 15.621C78.3418 17.651 78.7468 18.1356 80.9008 18.7292C81.4497 18.8804 81.8235 19.2007 81.6974 19.7621C81.5631 20.3601 81.0405 20.5154 80.4469 20.4963C78.5373 20.4348 76.776 18.9756 76.4811 17.2047C76.4135 16.7983 76.3939 16.3851 76.3513 15.8912Z" fill="#0C056D"/>
</g>
<defs>
<clipPath id="clip0_78_2">
<rect width="95" height="30" fill="white"/>
</clipPath>
</defs>
</svg>
